<svg version="1.1" id="Layer_1" xmlns="http://www.w3.org/2000/svg" xmlns:xlink="http://www.w3.org/1999/xlink" x="0px" y="0px"
	 width="100%" viewBox="0 0 172 171" enable-background="new 0 0 172 171" xml:space="preserve">

<path fill="#F69153" opacity="1.000000" stroke="none" 
	d="
M83.449982,172.000000 
	C81.237251,171.189835 79.535591,170.190903 77.702606,169.597809 
	C50.198658,160.698410 29.223234,133.300293 30.883106,100.346489 
	C32.300217,72.212288 53.139957,46.155567 81.595673,38.477791 
	C93.024811,35.394039 99.198532,40.156952 99.200653,52.087135 
	C99.206871,87.074348 99.105507,122.062080 99.293472,157.048279 
	C99.326996,163.287842 97.687485,168.121689 92.100143,171.670441 
	C89.299988,172.000000 86.599968,172.000000 83.449982,172.000000 
z"/>
<path fill="#FCDECC" opacity="1.000000" stroke="none" 
	d="
M159.064270,171.155273 
	C159.064270,171.155273 159.032578,171.577667 159.016296,171.788834 
	C143.979111,172.000000 128.958206,172.000000 113.468658,172.000000 
	C113.000000,172.000000 112.979210,171.559723 113.436111,171.293579 
	C128.950104,171.070038 144.007187,171.112656 159.064270,171.155273 
z"/>
<path fill="#F69255" opacity="1.000000" stroke="none" 
	d="
M43.749542,50.753288 
	C39.912598,55.324886 36.327095,59.644176 32.652988,64.070206 
	C30.013981,61.843040 30.339790,56.672657 25.121616,57.199146 
	C22.519522,57.461689 21.149313,57.914497 21.123240,60.855064 
	C21.088211,64.806122 20.647421,68.753593 20.387138,72.608887 
	C13.960989,73.259071 13.892361,73.164726 14.921239,67.426781 
	C15.474319,64.342316 15.927105,61.239864 16.486012,57.767368 
	C13.910739,57.349468 11.728221,56.995296 9.009865,56.554176 
	C9.539058,55.217434 9.725600,54.077446 10.347360,53.274448 
	C22.687393,37.337357 35.029335,21.400867 47.547138,5.603917 
	C48.582378,4.297485 50.885006,3.306441 52.587524,3.323027 
	C72.077080,3.512902 91.565048,3.900641 111.051147,4.337597 
	C112.399727,4.367837 113.730103,5.209281 115.068947,5.673484 
	C114.573143,7.010680 114.266891,8.463957 113.536118,9.657260 
	C112.497879,11.352624 111.176254,12.879940 109.924759,14.438139 
	C106.562042,18.624950 101.703018,22.458519 108.100922,29.023653 
	C82.592751,26.596872 61.464191,33.313866 43.749542,50.753288 
z"/>
<path fill="#F69154" opacity="1.000000" stroke="none" 
	d="
M113.955460,99.007599 
	C105.549515,87.589554 105.310028,74.614410 113.104729,63.990604 
	C120.227676,54.282368 133.888000,50.151829 145.300568,54.255409 
	C156.925980,58.435528 164.543350,69.728188 164.102112,82.128487 
	C163.702911,93.347679 156.474426,103.418304 145.952805,107.413857 
	C134.714661,111.681511 123.002419,108.692474 113.955460,99.007599 
z"/>
<path fill="#F69153" opacity="1.000000" stroke="none" 
	d="
M159.364471,170.967346 
	C144.007187,171.112656 128.950104,171.070038 113.422607,171.073608 
	C108.467278,169.319427 107.481110,165.847534 108.034264,161.402863 
	C110.750320,139.578629 132.473526,117.783180 154.344681,115.036819 
	C161.145325,114.182861 164.177399,116.676994 164.204025,123.359573 
	C164.256348,136.493149 164.165985,149.627426 164.253967,162.760635 
	C164.278625,166.439545 163.248199,169.279709 159.364471,170.967346 
z"/>
</svg>